<svg width="48" height="48" viewBox="0 0 48 48" fill="none" xmlns="http://www.w3.org/2000/svg">
<rect width="48" height="48" rx="8" fill="white"/>
<path d="M27.3428 15.049C26.6787 14.8576 25.9873 15.2443 25.7959 15.9084L20.7959 33.4084C20.6045 34.0724 20.9912 34.7638 21.6553 34.9552C22.3193 35.1466 23.0107 34.7599 23.2021 34.0959L28.2021 16.5959C28.3936 15.9318 28.0068 15.2404 27.3428 15.049ZM30.4912 19.7404C30.0029 20.2287 30.0029 21.0216 30.4912 21.5099L33.9795 25.0021L30.4873 28.4943C29.999 28.9826 29.999 29.7756 30.4873 30.2638C30.9756 30.7521 31.7686 30.7521 32.2568 30.2638L36.6318 25.8888C37.1201 25.4006 37.1201 24.6076 36.6318 24.1193L32.2568 19.7443C31.7686 19.256 30.9756 19.256 30.4873 19.7443L30.4912 19.7404ZM18.5107 19.7404C18.0225 19.2521 17.2295 19.2521 16.7412 19.7404L12.3662 24.1154C11.8779 24.6037 11.8779 25.3966 12.3662 25.8849L16.7412 30.2599C17.2295 30.7482 18.0225 30.7482 18.5107 30.2599C18.999 29.7716 18.999 28.9787 18.5107 28.4904L15.0186 25.0021L18.5107 21.5099C18.999 21.0216 18.999 20.2287 18.5107 19.7404Z" fill="#2563EB"/>
</svg>
